<?xml version="1.0" encoding="UTF-8"?>
<svg id="Camada_1" data-name="Camada 1" xmlns="http://www.w3.org/2000/svg" version="1.1" viewBox="0 0 1086 1086">
  <defs>
    <style>
      .cls-1 {
        fill: #fff;
        stroke-width: 0px;
      }
    </style>
  </defs>
  <g>
    <path class="cls-1" d="M256.49,639.77v-33.89h13.37c2.57,0,4.76.49,6.57,1.46,1.81.98,3.19,2.33,4.15,4.05.95,1.73,1.43,3.72,1.43,5.97s-.49,4.24-1.46,5.96c-.97,1.72-2.37,3.06-4.21,4.02-1.84.96-4.06,1.44-6.66,1.44h-8.52v-5.74h7.36c1.38,0,2.52-.24,3.42-.72.9-.48,1.57-1.15,2.02-2,.45-.86.67-1.84.67-2.95s-.22-2.11-.67-2.95c-.45-.84-1.12-1.5-2.03-1.97-.9-.47-2.05-.7-3.44-.7h-4.83v28.04h-7.17Z"/>
    <path class="cls-1" d="M290.41,639.77v-33.89h13.37c2.56,0,4.75.45,6.56,1.36s3.2,2.2,4.15,3.86c.95,1.66,1.43,3.61,1.43,5.85s-.49,4.18-1.46,5.8c-.97,1.62-2.37,2.85-4.21,3.72-1.84.86-4.06,1.29-6.66,1.29h-8.95v-5.76h7.79c1.37,0,2.5-.19,3.41-.56.9-.38,1.58-.94,2.03-1.69.45-.75.67-1.68.67-2.8s-.22-2.07-.67-2.85c-.45-.77-1.13-1.36-2.04-1.76s-2.06-.6-3.43-.6h-4.83v28.04h-7.17ZM308.71,624.35l8.42,15.42h-7.91l-8.24-15.42h7.73Z"/>
    <path class="cls-1" d="M355.87,622.83c0,3.7-.7,6.84-2.09,9.43-1.4,2.59-3.29,4.57-5.69,5.93-2.4,1.36-5.09,2.04-8.08,2.04s-5.72-.68-8.11-2.05-4.29-3.35-5.68-5.94c-1.39-2.59-2.09-5.73-2.09-9.42s.69-6.84,2.09-9.43c1.39-2.59,3.28-4.57,5.68-5.93,2.39-1.36,5.1-2.04,8.11-2.04s5.69.68,8.08,2.04c2.4,1.36,4.3,3.34,5.69,5.93,1.4,2.59,2.09,5.74,2.09,9.43ZM348.6,622.83c0-2.39-.36-4.41-1.07-6.06-.71-1.64-1.71-2.89-3-3.74-1.29-.85-2.8-1.27-4.54-1.27s-3.24.42-4.53,1.27c-1.29.85-2.29,2.1-3,3.74-.71,1.64-1.07,3.66-1.07,6.06s.36,4.41,1.07,6.06c.71,1.64,1.71,2.89,3,3.74,1.29.85,2.8,1.27,4.53,1.27s3.24-.42,4.54-1.27c1.29-.85,2.29-2.1,3-3.74.71-1.64,1.07-3.66,1.07-6.06ZM337.47,602.6l3.51-7.53h6.52l-5.05,7.53h-4.98Z"/>
    <path class="cls-1" d="M363.6,611.79v-5.91h27.84v5.91h-10.38v27.99h-7.08v-27.99h-10.38Z"/>
    <path class="cls-1" d="M399.77,639.77v-33.89h22.84v5.91h-15.67v8.08h14.5v5.91h-14.5v8.09h15.74v5.91h-22.9Z"/>
    <path class="cls-1" d="M450.43,615.63c-.13-1.33-.7-2.37-1.7-3.11-1-.74-2.37-1.11-4.09-1.11-1.17,0-2.16.16-2.96.49-.81.33-1.42.77-1.85,1.35s-.64,1.22-.64,1.95c-.02.61.11,1.14.39,1.59.28.45.67.84,1.17,1.17.5.33,1.07.61,1.72.84s1.35.44,2.09.6l3.05.73c1.48.33,2.84.77,4.07,1.32,1.24.55,2.31,1.23,3.21,2.04.9.81,1.61,1.76,2.11,2.85.5,1.09.76,2.34.77,3.76-.01,2.07-.54,3.87-1.58,5.39-1.04,1.52-2.54,2.69-4.5,3.53-1.96.83-4.32,1.25-7.07,1.25s-5.12-.42-7.14-1.26c-2.02-.84-3.6-2.08-4.73-3.73-1.13-1.65-1.72-3.69-1.78-6.13h6.93c.08,1.14.41,2.08.98,2.84.58.76,1.36,1.32,2.33,1.7s2.08.57,3.32.57,2.27-.18,3.17-.53c.9-.35,1.6-.84,2.09-1.47.5-.63.74-1.35.74-2.17,0-.76-.22-1.4-.67-1.92-.45-.52-1.1-.96-1.95-1.32-.86-.36-1.9-.7-3.14-.99l-3.69-.93c-2.86-.7-5.11-1.78-6.77-3.26-1.66-1.48-2.48-3.47-2.47-5.97-.01-2.05.54-3.84,1.65-5.38,1.11-1.53,2.63-2.73,4.58-3.59,1.94-.86,4.15-1.29,6.62-1.29s4.71.43,6.59,1.29c1.88.86,3.35,2.06,4.39,3.59,1.05,1.53,1.59,3.31,1.62,5.33h-6.87Z"/>
    <path class="cls-1" d="M466.29,639.77v-33.89h22.84v5.91h-15.67v8.08h14.5v5.91h-14.5v8.09h15.74v5.91h-22.9Z"/>
    <path class="cls-1" d="M516.95,615.63c-.13-1.33-.7-2.37-1.7-3.11-1-.74-2.37-1.11-4.09-1.11-1.17,0-2.16.16-2.96.49-.81.33-1.42.77-1.85,1.35-.42.57-.64,1.22-.64,1.95-.02.61.11,1.14.39,1.59.28.45.67.84,1.17,1.17.5.33,1.07.61,1.72.84.65.24,1.35.44,2.09.6l3.05.73c1.48.33,2.84.77,4.07,1.32,1.24.55,2.31,1.23,3.21,2.04.9.81,1.61,1.76,2.11,2.85.5,1.09.76,2.34.77,3.76-.01,2.07-.54,3.87-1.58,5.39-1.04,1.52-2.54,2.69-4.5,3.53s-4.32,1.25-7.07,1.25-5.12-.42-7.14-1.26c-2.02-.84-3.6-2.08-4.73-3.73-1.13-1.65-1.72-3.69-1.78-6.13h6.93c.08,1.14.41,2.08.98,2.84s1.36,1.32,2.33,1.7,2.08.57,3.32.57,2.27-.18,3.17-.53c.9-.35,1.6-.84,2.09-1.47.5-.63.74-1.35.74-2.17,0-.76-.22-1.4-.67-1.92-.45-.52-1.1-.96-1.95-1.32-.86-.36-1.9-.7-3.14-.99l-3.69-.93c-2.86-.7-5.11-1.78-6.77-3.26-1.66-1.48-2.48-3.47-2.47-5.97-.01-2.05.54-3.84,1.65-5.38,1.11-1.53,2.63-2.73,4.58-3.59,1.94-.86,4.15-1.29,6.62-1.29s4.71.43,6.59,1.29c1.88.86,3.35,2.06,4.39,3.59,1.05,1.53,1.59,3.31,1.62,5.33h-6.87Z"/>
    <path class="cls-1" d="M547.35,639.77v-33.89h22.84v5.91h-15.67v8.08h14.5v5.91h-14.5v8.09h15.74v5.91h-22.91Z"/>
    <path class="cls-1" d="M625.31,622.83c0,3.7-.7,6.84-2.09,9.43-1.4,2.59-3.29,4.57-5.69,5.93-2.4,1.36-5.09,2.04-8.08,2.04s-5.71-.68-8.11-2.05c-2.39-1.37-4.29-3.35-5.68-5.94-1.39-2.59-2.09-5.73-2.09-9.42s.69-6.84,2.09-9.43c1.39-2.59,3.28-4.57,5.68-5.93,2.39-1.36,5.1-2.04,8.11-2.04s5.68.68,8.08,2.04c2.4,1.36,4.3,3.34,5.69,5.93,1.4,2.59,2.09,5.74,2.09,9.43ZM618.04,622.83c0-2.39-.36-4.41-1.07-6.06-.71-1.64-1.71-2.89-3-3.74-1.29-.85-2.8-1.27-4.53-1.27s-3.24.42-4.53,1.27c-1.29.85-2.29,2.1-3,3.74-.71,1.64-1.07,3.66-1.07,6.06s.36,4.41,1.07,6.06c.71,1.64,1.71,2.89,3,3.74,1.29.85,2.8,1.27,4.53,1.27s3.24-.42,4.53-1.27c1.29-.85,2.29-2.1,3-3.74.71-1.64,1.07-3.66,1.07-6.06ZM606.9,602.6l3.51-7.53h6.52l-5.05,7.53h-4.98Z"/>
    <path class="cls-1" d="M634.33,639.77v-33.89h13.37c2.56,0,4.75.45,6.56,1.36,1.81.91,3.2,2.2,4.15,3.86.95,1.66,1.43,3.61,1.43,5.85s-.49,4.18-1.46,5.8c-.97,1.62-2.38,2.85-4.21,3.72-1.84.86-4.06,1.29-6.66,1.29h-8.95v-5.76h7.79c1.37,0,2.5-.19,3.41-.56.9-.38,1.58-.94,2.03-1.69.45-.75.67-1.68.67-2.8s-.22-2.07-.67-2.85c-.45-.77-1.13-1.36-2.04-1.76-.91-.4-2.06-.6-3.43-.6h-4.83v28.04h-7.17ZM652.63,624.35l8.42,15.42h-7.91l-8.24-15.42h7.73Z"/>
    <path class="cls-1" d="M667.35,611.79v-5.91h27.84v5.91h-10.38v27.99h-7.08v-27.99h-10.38Z"/>
    <path class="cls-1" d="M703.52,639.77v-33.89h22.84v5.91h-15.67v8.08h14.5v5.91h-14.5v8.09h15.74v5.91h-22.91Z"/>
    <path class="cls-1" d="M754.18,615.63c-.13-1.33-.7-2.37-1.7-3.11-1-.74-2.37-1.11-4.09-1.11-1.17,0-2.16.16-2.96.49-.81.33-1.42.77-1.84,1.35-.43.57-.64,1.22-.64,1.95-.02.61.11,1.14.39,1.59.28.45.67.84,1.17,1.17.5.33,1.07.61,1.72.84.65.24,1.35.44,2.09.6l3.04.73c1.48.33,2.84.77,4.07,1.32,1.23.55,2.31,1.23,3.21,2.04.9.81,1.61,1.76,2.11,2.85.5,1.09.76,2.34.77,3.76-.01,2.07-.54,3.87-1.58,5.39-1.04,1.52-2.54,2.69-4.5,3.53-1.96.83-4.32,1.25-7.08,1.25s-5.12-.42-7.14-1.26c-2.02-.84-3.6-2.08-4.73-3.73-1.13-1.65-1.72-3.69-1.78-6.13h6.93c.08,1.14.41,2.08.99,2.84.58.76,1.36,1.32,2.33,1.7.98.38,2.08.57,3.32.57s2.27-.18,3.17-.53c.9-.35,1.6-.84,2.09-1.47.5-.63.74-1.35.74-2.17,0-.76-.22-1.4-.67-1.92-.45-.52-1.1-.96-1.95-1.32-.86-.36-1.9-.7-3.14-.99l-3.69-.93c-2.86-.7-5.11-1.78-6.77-3.26-1.65-1.48-2.48-3.47-2.47-5.97-.01-2.05.54-3.84,1.65-5.38,1.11-1.53,2.63-2.73,4.58-3.59,1.94-.86,4.15-1.29,6.62-1.29s4.71.43,6.59,1.29c1.88.86,3.35,2.06,4.39,3.59,1.05,1.53,1.59,3.31,1.62,5.33h-6.87Z"/>
    <path class="cls-1" d="M770.04,639.77v-33.89h22.84v5.91h-15.67v8.08h14.5v5.91h-14.5v8.09h15.74v5.91h-22.91Z"/>
    <path class="cls-1" d="M820.7,615.63c-.13-1.33-.7-2.37-1.7-3.11-1-.74-2.37-1.11-4.09-1.11-1.17,0-2.16.16-2.96.49-.81.33-1.42.77-1.84,1.35-.43.57-.64,1.22-.64,1.95-.02.61.11,1.14.39,1.59.28.45.67.84,1.17,1.17.5.33,1.07.61,1.72.84.65.24,1.35.44,2.09.6l3.04.73c1.48.33,2.84.77,4.07,1.32,1.23.55,2.31,1.23,3.21,2.04.9.81,1.61,1.76,2.11,2.85.5,1.09.76,2.34.77,3.76-.01,2.07-.54,3.87-1.58,5.39-1.04,1.52-2.54,2.69-4.5,3.53-1.96.83-4.32,1.25-7.08,1.25s-5.12-.42-7.14-1.26c-2.02-.84-3.6-2.08-4.73-3.73-1.13-1.65-1.72-3.69-1.78-6.13h6.93c.08,1.14.41,2.08.99,2.84.58.76,1.36,1.32,2.33,1.7.98.38,2.08.57,3.32.57s2.27-.18,3.17-.53c.9-.35,1.6-.84,2.09-1.47.5-.63.74-1.35.74-2.17,0-.76-.22-1.4-.67-1.92-.45-.52-1.1-.96-1.95-1.32-.86-.36-1.9-.7-3.14-.99l-3.69-.93c-2.86-.7-5.11-1.78-6.77-3.26-1.65-1.48-2.48-3.47-2.47-5.97-.01-2.05.54-3.84,1.65-5.38,1.11-1.53,2.63-2.73,4.58-3.59,1.94-.86,4.15-1.29,6.62-1.29s4.71.43,6.59,1.29c1.88.86,3.35,2.06,4.39,3.59,1.05,1.53,1.59,3.31,1.62,5.33h-6.87Z"/>
  </g>
  <path class="cls-1" d="M273.98,464.23h-15.37c-1.13,0-1.88,1-1.88,2.5l.19,88.73c0,1.5.75,2.5,1.88,2.5l15.37-.12c1.12,0,1.87-1,1.87-2.5l-.19-88.6c0-1.5-.75-2.5-1.87-2.5Z"/>
  <path class="cls-1" d="M330.51,463.61c-23.53,0-44.81,13.37-44.81,48.28s22.22,47.17,45.37,47.17,44.43-12.38,44.43-47.17-21.56-48.28-45-48.28ZM330.89,540.99c-16.5,0-25.87-5.2-25.87-29.22s8.81-30.21,25.69-30.21,25.68,6.44,25.68,30.21-9.09,29.22-25.5,29.22Z"/>
  <path class="cls-1" d="M458.47,464.23h-81.74c-1.12,0-1.87.99-1.87,2.48,0,12.75,3.94,15.72,13.03,15.72h20.25v73.05c0,1.48.66,2.48,1.78,2.48h15.56c1.13,0,1.88-.99,1.88-2.48v-73.29l31.12-.12c1.13,0,1.88-.99,1.88-2.48v-12.88c0-1.49-.75-2.48-1.88-2.48Z"/>
  <path class="cls-1" d="M532.35,501.25h-61.4c-1.13,0-1.88.99-1.88,2.48v51.63c0,1.49.75,2.48,1.88,2.48h61.4c1.12,0,1.87-.99,1.87-2.48v-13c0-1.49-.75-2.48-1.87-2.48h-44.06v-20.8h44.06c1.12,0,1.87-.99,1.87-2.48v-12.88c0-1.49-.75-2.48-1.87-2.48Z"/>
  <path class="cls-1" d="M532.35,464.98h-61.4c-1.13,0-1.88.99-1.88,2.48,0,12.5,1.97,15.6,11.62,15.6h51.65c1.12,0,1.87-.99,1.87-2.48v-13.12c0-1.49-.75-2.48-1.87-2.48Z"/>
  <path class="cls-1" d="M619.62,464.23h-7.78l-15.56.12h-7.78c-23.06,0-44.62,11.73-44.62,46.92s21.47,46.55,44.62,46.55h7.78l15.56-.12h7.78c1.13,0,1.87-1,1.87-2.5v-13.1c0-1.5-.75-2.5-1.87-2.5h-7.78l-15.56.12h-7.78c-16.12,0-25.31-6.12-25.31-29.45s9.47-27.83,25.31-27.83h7.78l15.56-.13h7.78c1.13,0,1.87-1,1.87-2.5v-13.1c0-1.5-.75-2.5-1.87-2.5Z"/>
  <path class="cls-1" d="M711.96,464.98h-15.65c-1.13,0-1.88.99-1.88,2.48l.19,56.83-34.87-50.39c-6.37-9.16-15.75-9.41-24.47-9.41-1.41,0-3.19-.25-3.19,2.48v88.52c0,1.48.75,2.48,1.88,2.48h15.47c1.13,0,1.88-.99,1.88-2.48v-59.55l35.81,50.76c7.41,10.52,12.65,11.14,23.06,11.14,1.41,0,3.66-.12,3.66-2.6v-87.78c0-1.49-.75-2.48-1.88-2.48Z"/>
  <path class="cls-1" d="M741.68,464.98h-15.37c-1.13,0-1.88.99-1.88,2.48l.19,88.03c0,1.48.75,2.48,1.88,2.48l15.37-.12c1.13,0,1.88-.99,1.88-2.48l-.19-87.9c0-1.49-.75-2.48-1.88-2.48Z"/>
  <path class="cls-1" d="M829.15,463.74h-7.78l-15.56.13h-7.78c-23.06,0-44.62,11.79-44.62,47.17s21.47,46.79,44.62,46.79h7.78l15.56-.13h7.78c1.13,0,1.87-1,1.87-2.51v-13.17c0-1.51-.75-2.51-1.87-2.51h-7.78l-15.56.13h-7.78c-16.12,0-25.31-6.15-25.31-29.61s9.47-27.98,25.31-27.98h7.78l15.56-.13h7.78c1.13,0,1.87-1,1.87-2.51v-13.17c0-1.51-.75-2.51-1.87-2.51Z"/>
  <path class="cls-1" d="M907.71,463.61c-25.78,0-66.09.38-66.09,47.92v10.91l.19,21.96v10.91c0,1.51.75,2.38,1.88,2.38h15.37c1.13,0,1.88-.88,1.88-2.38v-28.35h40.68v28.35c0,1.51.75,2.38,1.88,2.38h15.37c1.13,0,1.88-.88,1.88-2.38l.05-76.99c0-7.94-5.78-14.45-13.08-14.71ZM901.62,508.15l-40.59.13c1.97-25.34,25.4-26.22,40.59-26.22v26.09Z"/>
  <path class="cls-1" d="M502.83,446.33c-1.84,2.94-3.65,5.88-4.97,8.14-.49.83.11,1.88,1.08,1.88h12.14c.43,0,.83-.22,1.06-.59,1.91-3.07,3.73-6.05,4.93-8.15.47-.83-.13-1.86-1.09-1.86h-12.09c-.43,0-.83.22-1.06.59Z"/>
  <path class="cls-1" d="M230.2,509.92c7.12-2.23,10.31-11.89,10.31-20.8,0-20.8-18.56-24.88-30.84-24.88h-44.46v77.01h.03v14.24c0,1.48.75,2.35,1.87,2.35h42.75c13.97,0,38.15-2.85,38.15-27.61,0-13.25-9.09-19.07-17.81-20.3ZM184.64,482.18h25.03c4.78,0,11.53,1.73,11.53,9.78s-6.56,9.78-11.53,9.78h-25.03v-19.56ZM209.76,541.24h-25.12v-21.42h25.31c5.53,0,18.75,0,18.75,10.65,0,9.66-13.69,10.77-18.94,10.77Z"/>
</svg>